<svg id="Capa_1" enable-background="new 0 0 512.091 512.091" height="512" viewBox="0 0 512.091 512.091" width="512" xmlns="http://www.w3.org/2000/svg"><g><path d="m507.625 94.379c-57.51-53.98-78.58-80.12-90.89-89.86l-1.34 115.53h81.68c13.39 0 20.05-16.27 10.55-25.67z" fill="#c7cfe1"/><g><g><g><g><path d="m226.085 273.049h-.01l-104.31 18.95 29.6 147.99c.58 2.91 2.01 5.57 4.1 7.67l60 60c2.93 2.93 6.77 4.39 10.62 4.39 3.84 0 7.67-1.46 10.6-4.39l60-60c2.09-2.1 3.52-4.76 4.1-7.67l29.61-148.05z" fill="#f0f7ff"/></g></g></g></g><path d="m330.395 291.94-29.61 148.05c-.58 2.91-2.01 5.57-4.1 7.67l-60 60c-2.93 2.93-6.76 4.39-10.6 4.39v-239z" fill="#dfe7f4"/><g><path d="m184.855 149.219v-.01l-161.1-114.389c-12.71-9.03-29.09 5.07-22.07 18.98l85.17 168.93 46.78 2.4c4.376-6.485-19.428 28.793 51.22-75.911z" fill="#f0f7ff"/></g><path d="m421.075 15.05v93.5c-3.66 7.41-41.73 84.4-56.27 113.8l-52.3-1.73c-.07-.102-53.389-77.487-53.46-77.59 103.75-102.18 128.41-134.72 141.25-141.73 7.94-4.151 20.8 2.359 20.78 13.75z" fill="#dfe7f4"/><g><g><g><g><path d="m235.075 125.049c-2.66-2-5.82-3-8.99-3s-6.34 1-9.01 3l-130.23 97.68 34.92 69.27 104.32-.03 104.31-.03 34.41-69.59z" fill="#dfe7f4"/></g></g></g></g><path d="m364.805 222.35-34.41 69.59-104.31.03v-169.92c3.17 0 6.33 1 8.99 3z" fill="#c7cfe1"/></g></svg>